# xmcd CD Database Entry
#
# Track frame offsets:
# 150
# 24804
# 42479
# 59132
# 84905
# 110450
# 141225
# 160789
# 185100
# 210798
# 226694
# 241625
# 267686
#
# Disc length: 3902 seconds
#
# Revision: 1
# Processed by: cddbd v1.4b41PL2 Copyright (c) Steve Scherf et al.
# Submitted via: tcd 2.0b
#
DISCID=a80f3c0d
DTITLE=Masoom/Dil To Pagal Hai
DYEAR=1900
DGENRE=
TTITLE0=Do Naina(MASOOM)
TTITLE1=Huzoor Is Kadar(MASOOM)
TTITLE2=Tujh Se Naraz(female)(MASOOM)
TTITLE3=Tujh Se Naraz(male)(MASOOM)
TTITLE4=Are Re Are(DIL TO PAGAL HAI)
TTITLE5=Chand Ne (DIL TO PAGAL HAI)
TTITLE6=Bholi Si Surat(DIL TO PAGAL HAI)
TTITLE7=Kab Tak Chup(DIL TO PAGAL HAI)
TTITLE8=Pehli Pehli Bar(DIL TO PAGAL HAI)
TTITLE9=Ek Duje Ke Waste(DIL TO PAGAL HAI)
TTITLE10=Dance Of Envy(DIL TO PAGAL HAI)
TTITLE11=Le Gayi Le Gayi(DIL TO PAGAL HAI)
TTITLE12=Koi Ladki Hai(DIL TO PAGAL HAI)
EXTD=
EXTT0=
EXTT1=
EXTT2=
EXTT3=
EXTT4=
EXTT5=
EXTT6=
EXTT7=
EXTT8=
EXTT9=
EXTT10=
EXTT11=
EXTT12=
PLAYORDER=
